<svg width="24" height="21" viewBox="0 0 24 21" fill="none" xmlns="http://www.w3.org/2000/svg">
<path fill-rule="evenodd" clip-rule="evenodd" d="M1.64987 9.14974C8.09231 6.44971 12.3883 4.66968 14.5378 3.80966C20.675 1.35412 21.9503 0.927565 22.7815 0.91348C22.9643 0.910382 23.3731 0.953965 23.6379 1.16064C23.8614 1.33515 23.9229 1.57088 23.9524 1.73634C23.9818 1.90179 24.0185 2.2787 23.9893 2.57321C23.6568 5.93465 22.2177 14.092 21.4856 17.8569C21.1758 19.4499 20.5658 19.9841 19.9753 20.0363C18.6919 20.1499 17.7174 19.2205 16.4744 18.4367C14.5294 17.2102 13.4305 16.4467 11.5425 15.2499C9.36064 13.8668 10.7751 13.1066 12.0185 11.8643C12.344 11.5391 17.9985 6.5917 18.1079 6.14289C18.1216 6.08676 18.1343 5.87753 18.0051 5.76705C17.8759 5.65657 17.6851 5.69435 17.5475 5.72439C17.3524 5.76698 14.2452 7.74258 8.22584 11.6512C7.34386 12.2338 6.545 12.5176 5.82924 12.5027C5.04017 12.4863 3.52233 12.0736 2.39397 11.7207C1.00999 11.288 -0.0899676 11.0592 0.00581422 10.3242C0.0557033 9.94142 0.603723 9.54993 1.64987 9.14974Z" fill="white"/>
</svg>
