<svg width="34" height="21" viewBox="0 0 34 21" fill="none" xmlns="http://www.w3.org/2000/svg">
<path d="M33.8167 18.0638C32.4282 15.7729 28.8513 13.0202 27.3746 11.8223C26.9705 11.4943 26.9272 10.9269 27.295 10.5642C30.1131 7.78811 32.3671 4.59829 33.1429 2.67081C33.4852 1.81934 32.7767 0.919705 31.7783 0.919705H28.8783C27.9224 0.919705 27.363 1.23422 27.0964 1.73504C24.7543 6.13476 22.7452 8.03887 21.3389 9.15173C20.5515 9.7751 19.3236 9.25869 19.3236 8.31018C19.3236 6.48257 19.3236 4.12014 19.3236 2.44484C19.3236 1.63233 18.5988 0.974959 17.7048 0.974959L12.407 0.919705C11.7402 0.919705 11.3592 1.61179 11.7595 2.09702L12.6342 3.24813C12.9634 3.64695 13.1411 4.13218 13.1411 4.63017L13.1365 9.81406C13.1365 10.7158 11.9442 11.1564 11.2364 10.5246C8.84173 8.38668 6.76389 4.02097 6.0159 1.93339C5.79954 1.32915 5.18214 0.921122 4.48205 0.919705L1.62532 0.91333C0.553557 0.91333 -0.229979 1.84484 0.0613354 2.78273C2.67158 11.1819 8.02728 19.1724 17.5719 20.0387C18.5123 20.1237 19.3236 19.4295 19.3236 18.5703V15.8459C19.3236 15.0645 19.992 14.393 20.8513 14.3732C20.8814 14.3724 20.9116 14.3724 20.9417 14.3724C23.4662 14.3724 26.2936 17.7408 27.2826 19.3162C27.567 19.7696 28.0986 20.0458 28.6735 20.0458H32.5163C33.6375 20.0458 34.3569 18.9556 33.8167 18.0638Z" fill="white"/>
</svg>
