<svg width="24" height="23" viewBox="0 0 24 23" fill="none" xmlns="http://www.w3.org/2000/svg">
<path d="M0 22.959L1.69627 17.0665C0.647564 15.3369 0.0974211 13.3782 0.103152 11.3758C0.103152 5.10139 5.46704 0 12.0516 0C15.2493 0 18.2521 1.18396 20.5043 3.33364C22.7622 5.48331 24.0057 8.34228 24 11.3813C24 17.6557 18.6361 22.7571 12.0458 22.7571H12.0401C10.0401 22.7571 8.07449 22.277 6.32664 21.3713L0 22.959ZM6.63037 19.3144L6.9914 19.5217C8.51575 20.3837 10.2636 20.8366 12.0458 20.842H12.0516C17.5243 20.842 21.9828 16.6027 21.9828 11.3867C21.9828 8.8606 20.9513 6.48722 19.0773 4.69764C17.2034 2.90807 14.7049 1.92598 12.0516 1.92598C6.57879 1.92052 2.12034 6.15986 2.12034 11.3758C2.12034 13.16 2.64183 14.9004 3.63897 16.4063L3.87392 16.7664L2.87106 20.2528L6.63037 19.3144Z" fill="white"/>
<path d="M0 22.959L1.69627 17.0665C0.647564 15.3369 0.0974211 13.3782 0.103152 11.3758C0.103152 5.10139 5.46704 0 12.0516 0C15.2493 0 18.2521 1.18396 20.5043 3.33364C22.7622 5.48331 24.0057 8.34228 24 11.3813C24 17.6557 18.6361 22.7571 12.0458 22.7571H12.0401C10.0401 22.7571 8.07449 22.277 6.32664 21.3713L0 22.959ZM6.63037 19.3144L6.9914 19.5217C8.51575 20.3837 10.2636 20.8366 12.0458 20.842H12.0516C17.5243 20.842 21.9828 16.6027 21.9828 11.3867C21.9828 8.8606 20.9513 6.48722 19.0773 4.69764C17.2034 2.90807 14.7049 1.92598 12.0516 1.92598C6.57879 1.92052 2.12034 6.15986 2.12034 11.3758C2.12034 13.16 2.64183 14.9004 3.63897 16.4063L3.87392 16.7664L2.87106 20.2528L6.63037 19.3144Z" fill="url(#paint0_linear_8_226)"/>
<path fill-rule="evenodd" clip-rule="evenodd" d="M9.06581 6.61808C8.84231 6.14341 8.60736 6.13249 8.39532 6.12704C8.2234 6.12158 8.02283 6.12158 7.82226 6.12158C7.62168 6.12158 7.30077 6.19251 7.02569 6.47622C6.75062 6.75994 5.98272 7.4474 5.98272 8.8496C5.98272 10.2463 7.05435 11.5994 7.20334 11.7904C7.35234 11.9814 9.27211 14.944 12.3036 16.0843C14.8251 17.0336 15.3409 16.8427 15.8853 16.7936C16.4297 16.7445 17.6503 16.1061 17.9025 15.4405C18.1489 14.7749 18.1489 14.2074 18.0744 14.0874C17.9999 13.9674 17.7993 13.8964 17.5013 13.7546C17.2033 13.6127 15.7363 12.9253 15.4612 12.827C15.1861 12.7343 14.9856 12.6852 14.7907 12.9689C14.5902 13.2526 14.0171 13.891 13.8452 14.0819C13.6733 14.2729 13.4956 14.2947 13.1976 14.1529C12.8996 14.011 11.9369 13.7109 10.7965 12.7398C9.90821 11.9868 9.30649 11.0538 9.13457 10.7701C8.96266 10.4864 9.11738 10.3336 9.26638 10.1918C9.39819 10.0663 9.56437 9.85896 9.71337 9.69528C9.86237 9.5316 9.91394 9.41157 10.0114 9.22061C10.1088 9.02965 10.0629 8.86597 9.98844 8.72411C9.91394 8.58771 9.32942 7.18005 9.06581 6.61808Z" fill="white"/>
<defs>
<linearGradient id="paint0_linear_8_226" x1="12.0023" y1="22.9568" x2="12.0023" y2="0" gradientUnits="userSpaceOnUse">
<stop stop-color="#F9F9F9"/>
<stop offset="1" stop-color="white"/>
</linearGradient>
</defs>
</svg>
