<svg width="140" height="140" viewBox="0 0 140 140" fill="none" xmlns="http://www.w3.org/2000/svg">
<circle cx="70" cy="70" r="70" fill="#19202A"/>
<path fill-rule="evenodd" clip-rule="evenodd" d="M78.2706 119.308C101.916 115.339 119.932 94.7733 119.932 70C119.932 42.3858 97.5467 20 69.9325 20C42.3182 20 19.9325 42.3858 19.9325 70C19.9325 95.4653 38.9697 116.484 63.5888 119.601L59.1768 133.18L70.9325 124.639L82.6882 133.18L78.1979 119.361L78.2706 119.308ZM78.2706 119.308L89.9536 110.82H75.4227L70.9325 97L66.4422 110.82H51.9113L63.667 119.361L63.5888 119.601C65.6663 119.864 67.7836 120 69.9325 120C72.7734 120 75.559 119.763 78.2706 119.308ZM99.6426 102.348L92.6836 109.767L102.674 107.856L107.579 116.766L108.848 106.674L118.839 104.763L109.633 100.437L110.902 90.345L103.943 97.7635L94.7376 93.4376L99.6426 102.348ZM40.9805 102.809L45.3462 93.6223L36.4143 98.4887L29.026 91.4977L30.894 101.496L21.962 106.363L32.0485 107.676L33.9165 117.674L38.2823 108.487L48.3688 109.8L40.9805 102.809ZM119.687 75.5561L116.642 68.9596L115.228 76.0861L108.013 76.9438L114.354 80.4906L112.94 87.6171L118.273 82.6826L124.614 86.2294L121.569 79.6329L126.901 74.6984L119.687 75.5561ZM24.6696 76.3388L23.2758 69.2083L20.2122 75.7962L13 74.9183L18.3188 79.8678L15.2552 86.4557L21.606 82.9267L26.9248 87.8761L25.531 80.7456L31.8818 77.2166L24.6696 76.3388Z" fill="#D9D9D9"/>
<path d="M64.48 66.76C66 66.8 67.22 66.86 68.14 66.94C69.1 67.02 69.88 67.1 70.48 67.18C71.12 67.22 71.74 67.3 72.34 67.42C73.9 67.58 75.3 67.82 76.54 68.14C77.78 68.42 78.84 68.86 79.72 69.46C80.6 70.06 81.24 70.84 81.64 71.8C82.04 72.76 82.14 74 81.94 75.52L81.28 81.7C81.12 82.94 81.16 84 81.4 84.88C81.68 85.76 82.26 86.18 83.14 86.14C83.9 86.1 84.56 85.7 85.12 84.94C85.68 84.14 86.22 83.02 86.74 81.58L87.04 80.74H88.42L88.18 81.52C87.46 84 86.44 85.84 85.12 87.04C83.8 88.24 82 88.84 79.72 88.84C77.2 88.84 75.4 88.22 74.32 86.98C73.24 85.7 72.82 84.12 73.06 82.24L73.78 75.52C73.98 73.68 73.88 72.2 73.48 71.08C73.12 69.92 72.24 69.08 70.84 68.56C69.48 68 67.32 67.72 64.36 67.72L64.48 66.76ZM63.64 67.66L63.94 66.58H66.16C68.44 66.58 70.44 66.28 72.16 65.68C73.92 65.04 75.4 64.14 76.6 62.98C77.8 61.82 78.7 60.42 79.3 58.78C79.94 57.14 80.26 55.3 80.26 53.26C80.26 51.02 79.76 49.38 78.76 48.34C77.76 47.26 76.18 46.72 74.02 46.72C72.62 46.72 71.6 47.02 70.96 47.62C70.36 48.18 69.84 49.32 69.4 51.04L61.24 81.64C60.92 82.88 60.74 83.86 60.7 84.58C60.66 85.3 60.94 85.84 61.54 86.2C62.18 86.56 63.26 86.76 64.78 86.8L64.54 88C63.46 87.92 62.16 87.88 60.64 87.88C59.12 87.84 57.5 87.82 55.78 87.82C54.02 87.82 52.3 87.84 50.62 87.88C48.98 87.88 47.66 87.92 46.66 88L46.9 86.8C48.26 86.72 49.32 86.56 50.08 86.32C50.84 86.08 51.44 85.6 51.88 84.88C52.32 84.16 52.72 83.08 53.08 81.64L61 51.88C61.32 50.64 61.48 49.66 61.48 48.94C61.48 48.18 61.18 47.64 60.58 47.32C59.98 46.96 58.94 46.76 57.46 46.72L57.76 45.52C58.4 45.56 59.2 45.6 60.16 45.64C61.12 45.64 62.14 45.66 63.22 45.7C64.34 45.7 65.36 45.7 66.28 45.7C68 45.7 69.56 45.68 70.96 45.64C72.4 45.6 73.82 45.58 75.22 45.58C79.82 45.58 83.22 46.3 85.42 47.74C87.62 49.14 88.72 51.22 88.72 53.98C88.72 56.7 87.76 59.08 85.84 61.12C83.96 63.16 81.32 64.76 77.92 65.92C74.52 67.04 70.56 67.6 66.04 67.6L63.64 67.66Z" fill="#19202A"/>
</svg>
